<svg width="32" height="21" viewBox="0 0 32 21" fill="none" xmlns="http://www.w3.org/2000/svg">
<path d="M30.7969 11.1474C31.0785 10.7436 31.0663 10.1923 30.7663 9.80128C26.2289 3.96154 21.3303 1 16.199 1C7.49785 1 1.45418 9.48718 1.20313 9.84615C0.921459 10.25 0.933706 10.8013 1.23375 11.1923C5.76496 17.0385 10.6636 20 15.7949 20C24.496 20 30.5397 11.5128 30.7969 11.1474ZM15.7949 17.8013C11.5208 17.8013 7.35701 15.3397 3.40138 10.4936C4.95057 8.57692 9.87367 3.19872 16.199 3.19872C20.473 3.19872 24.6369 5.66026 28.5925 10.5064C27.0433 12.4231 22.1202 17.8013 15.7949 17.8013Z" fill="white" stroke="white" stroke-width="0.5"/>
<path d="M16.0009 4.76038C13.0617 4.76038 10.6675 7.26679 10.6675 10.3437C10.6675 13.4206 13.0617 15.927 16.0009 15.927C18.94 15.927 21.3342 13.4206 21.3342 10.3437C21.3342 7.26679 18.94 4.76038 16.0009 4.76038ZM16.0009 13.7283C14.219 13.7283 12.7678 12.2091 12.7678 10.3437C12.7678 8.47832 14.219 6.95909 16.0009 6.95909C17.7827 6.95909 19.2339 8.47832 19.2339 10.3437C19.2339 12.2091 17.7827 13.7283 16.0009 13.7283Z" fill="white" stroke="white" stroke-width="0.5"/>
</svg>
