<svg width="24" height="24" viewBox="0 0 24 24" fill="none" xmlns="http://www.w3.org/2000/svg">
<path d="M22.0586 1.94182C21.3276 1.21064 20.336 0.799946 19.302 0.800065C18.2675 0.797082 17.2748 1.20849 16.5458 1.94248L3.13424 15.3529C3.02297 15.465 2.93903 15.6013 2.88886 15.751L0.852511 21.8601C0.674786 22.3936 0.963239 22.9702 1.49677 23.1478C1.60028 23.1823 1.70868 23.1999 1.81774 23.2C1.92703 23.1999 2.03567 23.1823 2.13948 23.1481L8.24858 21.1118C8.39863 21.0617 8.53495 20.9773 8.64669 20.8654L22.0582 7.45391C23.5804 5.93189 23.5806 3.46403 22.0586 1.94182ZM20.6185 6.01517L7.38209 19.2516L3.42746 20.5721L4.74396 16.6226L17.9854 3.38623C18.7134 2.6597 19.8926 2.66089 20.6191 3.38885C20.9661 3.73661 21.1617 4.20738 21.1632 4.69867C21.1644 5.19259 20.9683 5.66652 20.6185 6.01517Z" fill="white" stroke="white" stroke-width="0.5"/>
</svg>
