<svg width="24" height="24" viewBox="0 0 24 24" fill="none" xmlns="http://www.w3.org/2000/svg">
<circle cx="12" cy="12" r="11" stroke="white" stroke-width="2"/>
<path d="M8 17.5L8.5 11.5H9.5L10 17.5C10 18.5 9.76138 19 9 19C8.23862 19 8 18.5 8 17.5Z" fill="white"/>
<path d="M7.80011 7C7.80011 6.72386 7.57625 6.5 7.30011 6.5C7.02397 6.5 6.80011 6.72386 6.80011 7H7.80011ZM11.2001 7C11.2001 6.72386 10.9762 6.5 10.7001 6.5C10.4239 6.5 10.2001 6.72386 10.2001 7H11.2001ZM9.50006 7C9.50006 6.72386 9.2762 6.5 9.00006 6.5C8.72392 6.5 8.50006 6.72386 8.50006 7H9.50006ZM8.50006 10.2086V10.7086H9.50006V10.2086H8.50006ZM6.80011 7V10H7.80011V7H6.80011ZM11.2001 10V7H10.2001V10H11.2001ZM8.50006 7V10.2086H9.50006V7H8.50006ZM8.30011 11.5H9.70006V10.5H8.30011V11.5ZM10.2001 10C10.2001 10.2761 9.9762 10.5 9.70006 10.5V11.5C10.5285 11.5 11.2001 10.8284 11.2001 10H10.2001ZM6.80011 10C6.80011 10.8284 7.47168 11.5 8.30011 11.5V10.5C8.02397 10.5 7.80011 10.2761 7.80011 10H6.80011Z" fill="white"/>
<path d="M13.9999 17.5L14.4385 12.2369C14.475 11.7989 14.1978 11.4117 13.8702 11.1189C12.7083 10.0801 13.4177 8.01885 13.9999 6.99996C14.3846 6.32681 15.6999 5.59996 16.4999 7.99996C17.0387 9.61623 16.7006 10.5673 16.2187 11.067C15.8786 11.4198 15.5298 11.8586 15.5705 12.347L15.9999 17.5C15.9999 18.5 15.7613 19 14.9999 19C14.2385 19 13.9999 18.5 13.9999 17.5Z" fill="white"/>
</svg>
