<svg width="26" height="26" viewBox="0 0 26 26" fill="none" xmlns="http://www.w3.org/2000/svg">
<path d="M10.2499 9.00006H2.74994C1.78497 9.00006 1 8.21509 1 7.24994V2.74994C1 1.78497 1.78497 1 2.74994 1H10.2499C11.2151 1 12.0001 1.78497 12.0001 2.74994V7.24994C12.0001 8.21509 11.2151 9.00006 10.2499 9.00006ZM2.74994 2.5C2.61206 2.5 2.5 2.61206 2.5 2.74994V7.24994C2.5 7.388 2.61206 7.50006 2.74994 7.50006H10.2499C10.388 7.50006 10.5001 7.388 10.5001 7.24994V2.74994C10.5001 2.61206 10.388 2.5 10.2499 2.5H2.74994Z" fill="white" stroke="white" stroke-width="0.5"/>
<path d="M10.2499 24.9999H2.74994C1.78497 24.9999 1 24.215 1 23.25V12.75C1 11.7849 1.78497 10.9999 2.74994 10.9999H10.2499C11.2151 10.9999 12.0001 11.7849 12.0001 12.75V23.25C12.0001 24.215 11.2151 24.9999 10.2499 24.9999ZM2.74994 12.4999C2.61206 12.4999 2.5 12.6119 2.5 12.75V23.25C2.5 23.3879 2.61206 23.4999 2.74994 23.4999H10.2499C10.388 23.4999 10.5001 23.3879 10.5001 23.25V12.75C10.5001 12.6119 10.388 12.4999 10.2499 12.4999H2.74994Z" fill="white" stroke="white" stroke-width="0.5"/>
<path d="M23.2501 24.9999H15.7501C14.7849 24.9999 13.9999 24.215 13.9999 23.25V18.75C13.9999 17.7849 14.7849 16.9999 15.7501 16.9999H23.2501C24.215 16.9999 25 17.7849 25 18.75V23.25C25 24.215 24.215 24.9999 23.2501 24.9999ZM15.7501 18.4999C15.612 18.4999 15.4999 18.6119 15.4999 18.75V23.25C15.4999 23.3879 15.612 23.4999 15.7501 23.4999H23.2501C23.3879 23.4999 23.5 23.3879 23.5 23.25V18.75C23.5 18.6119 23.3879 18.4999 23.2501 18.4999H15.7501Z" fill="white" stroke="white" stroke-width="0.5"/>
<path d="M23.2501 15.0001H15.7501C14.7849 15.0001 13.9999 14.2151 13.9999 13.2499V2.74994C13.9999 1.78497 14.7849 1 15.7501 1H23.2501C24.215 1 25 1.78497 25 2.74994V13.2499C25 14.2151 24.215 15.0001 23.2501 15.0001ZM15.7501 2.5C15.612 2.5 15.4999 2.61206 15.4999 2.74994V13.2499C15.4999 13.388 15.612 13.5001 15.7501 13.5001H23.2501C23.3879 13.5001 23.5 13.388 23.5 13.2499V2.74994C23.5 2.61206 23.3879 2.5 23.2501 2.5H15.7501Z" fill="white" stroke="white" stroke-width="0.5"/>
</svg>
