<svg width="27" height="23" viewBox="0 0 27 23" fill="none" xmlns="http://www.w3.org/2000/svg">
<path d="M17.1692 8.37418C16.833 8.37418 16.5282 8.15578 16.4232 7.80633C16.2865 7.38045 16.5177 6.91089 16.9275 6.77985C18.5458 6.23384 20.6368 6.05912 22.5598 6.28844C22.9906 6.34304 23.3058 6.74709 23.2533 7.19481C23.2008 7.64253 22.812 7.97014 22.3811 7.91554C20.6789 7.70805 18.819 7.87185 17.4109 8.34142C17.3268 8.35234 17.2428 8.37418 17.1692 8.37418V8.37418ZM17.1692 11.2789C16.833 11.2789 16.5282 11.0605 16.4232 10.7111C16.2865 10.2852 16.5177 9.81563 16.9275 9.68459C18.5352 9.13859 20.6368 8.96386 22.5598 9.19319C22.9906 9.24779 23.3058 9.65183 23.2533 10.0996C23.2008 10.5473 22.812 10.8749 22.3811 10.8203C20.6789 10.6128 18.819 10.7766 17.4109 11.2462C17.3319 11.2671 17.2507 11.2781 17.1692 11.2789V11.2789ZM17.1692 14.1837C16.833 14.1837 16.5282 13.9653 16.4232 13.6158C16.2865 13.1899 16.5177 12.7204 16.9275 12.5893C18.5352 12.0433 20.6368 11.8686 22.5598 12.0979C22.9906 12.1525 23.3058 12.5566 23.2533 13.0043C23.2008 13.452 22.812 13.7687 22.3811 13.725C20.6789 13.5175 18.819 13.6813 17.4109 14.1509C17.3319 14.1718 17.2507 14.1828 17.1692 14.1837V14.1837Z" fill="white"/>
<path fill-rule="evenodd" clip-rule="evenodd" d="M14.1788 4.04474V19.1615C17.8475 17.4837 22.2402 17.5417 24.945 17.8359C24.9631 17.8379 24.9792 17.8325 24.9914 17.8219C24.9956 17.8182 24.9976 17.8154 24.9985 17.814C24.9985 17.8139 24.9986 17.8138 24.9986 17.8138C24.9986 17.8134 24.9987 17.813 24.9987 17.8124V2.90973C23.0675 1.89428 20.8255 1.82122 18.7361 2.23929C16.8777 2.61112 15.2319 3.3542 14.1788 4.04474ZM12.1788 19.2525V3.94623C10.7885 2.6714 8.96934 2.168 7.10842 2.11675C5.14578 2.0627 3.23897 2.518 2 2.99305V17.8123C2 17.8126 2 17.8128 2.00001 17.813C2.00085 17.8143 2.00282 17.8169 2.00665 17.8202C2.01903 17.831 2.0361 17.8369 2.05555 17.8348C6.77151 17.326 10.2163 18.4038 12.1788 19.2525ZM13.2762 2.24802C14.5528 1.44913 16.3563 0.675796 18.3437 0.27816C20.7339 -0.200079 23.5082 -0.157033 25.9906 1.17196C26.6518 1.52595 26.9987 2.21022 26.9987 2.886V17.8124C26.9987 19.0547 25.8997 19.9516 24.7287 19.8242C21.722 19.4971 17.0146 19.5462 13.7235 21.6838L13.2348 22.0012L12.7177 21.7325C12.7 21.7233 12.6817 21.7138 12.6628 21.7039C11.4614 21.0787 7.88497 19.2174 2.2701 19.8233C1.103 19.9492 0 19.0579 0 17.8123V2.96516C0 2.20719 0.43605 1.45629 1.21689 1.15157C2.65499 0.590344 4.85678 0.0539792 7.16348 0.117508C9.23017 0.174426 11.4649 0.718189 13.2762 2.24802Z" fill="white"/>
</svg>
