<svg width="107" height="86" viewBox="0 0 107 86" fill="none" xmlns="http://www.w3.org/2000/svg">
<path d="M103.307 20.96V73.6533C103.307 78.0716 99.7249 81.6533 95.3067 81.6533H12C7.58172 81.6533 4 78.0716 4 73.6533V20.96C4 16.5417 7.58172 12.96 12 12.96H32.1244C32.6743 12.96 33.12 12.5143 33.12 11.9644C33.12 7.5658 36.6858 4 41.0845 4H67.7155C72.1142 4 75.68 7.5658 75.68 11.9644C75.68 12.5143 76.1257 12.96 76.6755 12.96H95.3066C99.7249 12.96 103.307 16.5417 103.307 20.96Z" stroke="white" stroke-width="7"/>
<circle cx="54.0264" cy="47.3064" r="20.3933" stroke="white" stroke-width="7"/>
<circle cx="89.12" cy="28.6398" r="5.22667" fill="white"/>
</svg>
