<svg width="78" height="78" viewBox="0 0 78 78" fill="none" xmlns="http://www.w3.org/2000/svg">
<path d="M26.2725 15.0364V4.1C26.2725 4.04477 26.3172 4 26.3725 4H50.0361C50.0913 4 50.1361 4.04477 50.1361 4.1V15.0364C50.1361 15.0916 50.0913 15.1364 50.0361 15.1364H26.3725C26.3172 15.1364 26.2725 15.0916 26.2725 15.0364Z" stroke="#3746AA" stroke-width="8" stroke-linecap="round"/>
<path d="M26.2725 74H51.727" stroke="#3746AA" stroke-width="8" stroke-linecap="round"/>
<path d="M39 45.3636V61.2727" stroke="#3746AA" stroke-width="8" stroke-linecap="round"/>
<path d="M73.9 45.3636H4.1C4.04477 45.3636 4 45.3189 4 45.2636V30.8636C4 29.2068 5.34315 27.8636 7 27.8636H71C72.6569 27.8636 74 29.2068 74 30.8636V45.2636C74 45.3189 73.9552 45.3636 73.9 45.3636Z" stroke="#3746AA" stroke-width="8" stroke-linecap="round"/>
</svg>
